<?xml version="1.0" encoding="UTF-8" standalone="no"?>
<!-- Generator: Adobe Illustrator 16.0.0, SVG Export Plug-In . SVG Version: 6.00 Build 0)  -->

<svg
   xmlns:dc="http://purl.org/dc/elements/1.1/"
   xmlns:cc="http://creativecommons.org/ns#"
   xmlns:rdf="http://www.w3.org/1999/02/22-rdf-syntax-ns#"
   xmlns:svg="http://www.w3.org/2000/svg"
   xmlns="http://www.w3.org/2000/svg"
   xmlns:xlink="http://www.w3.org/1999/xlink"
   xmlns:sodipodi="http://sodipodi.sourceforge.net/DTD/sodipodi-0.dtd"
   xmlns:inkscape="http://www.inkscape.org/namespaces/inkscape"
   version="1.1"
   id="Layer_1"
   x="0px"
   y="0px"
   width="230"
   height="230"
   viewBox="0 0 230 230"
   enable-background="new 0 0 230 30"
   xml:space="preserve"
   inkscape:version="0.48.4 r9939"
   sodipodi:docname="cylonjs-logo.svg"><metadata
     id="metadata39"><rdf:RDF><cc:Work
         rdf:about=""><dc:format>image/svg+xml</dc:format><dc:type
           rdf:resource="http://purl.org/dc/dcmitype/StillImage" /></cc:Work></rdf:RDF></metadata><defs
     id="defs37" /><sodipodi:namedview
     pagecolor="#ffffff"
     bordercolor="#666666"
     borderopacity="1"
     objecttolerance="10"
     gridtolerance="10"
     guidetolerance="10"
     inkscape:pageopacity="0"
     inkscape:pageshadow="2"
     inkscape:window-width="1600"
     inkscape:window-height="872"
     id="namedview35"
     showgrid="false"
     inkscape:zoom="2.2695652"
     inkscape:cx="23.132184"
     inkscape:cy="109.7318"
     inkscape:window-x="0"
     inkscape:window-y="0"
     inkscape:window-maximized="1"
     inkscape:current-layer="Layer_1"
     inkscape:showpageshadow="false" /><rect
     style="fill:#4d050b;fill-opacity:1;stroke:none"
     id="rect3026"
     width="230"
     height="230"
     x="0"
     y="0" /><g
     id="g3016"
     transform="matrix(1.6122139,0,0,1.6122139,20.342891,-248.12161)"><polygon
       transform="translate(0,200)"
       style="fill:#ece7e8"
       id="polygon3"
       points="1.496,23.623 1.496,5.693 57.957,0.315 115.929,5.688 115.929,23.628 57.957,29 " /><polygon
       transform="translate(0,200)"
       style="fill:#212120"
       id="polygon5"
       points="112.615,20.853 57.972,25.444 4.809,20.853 4.809,8.463 57.972,3.872 112.615,8.463 " /><g
       transform="translate(0,200)"
       id="g7"><defs
         id="defs9"><polygon
           points="112.615,19.925 57.972,23.829 4.809,19.925 4.809,9.391 57.972,5.487 112.615,9.391 "
           id="SVGID_1_" /></defs><clipPath
         id="SVGID_2_"><use
           height="30"
           width="230"
           y="0"
           x="0"
           style="overflow:visible"
           id="use13"
           overflow="visible"
           xlink:href="#SVGID_1_" /></clipPath><rect
         style="fill:#ed2e4a"
         id="rect15"
         height="19.849001"
         width="17.465"
         clip-path="url(#SVGID_2_)"
         y="3.9189999"
         x="48.441002" /></g></g><g
     id="g17"
     transform="matrix(1.6122139,0,0,1.6122139,-171.92732,119.4024)"><path
       d="m 133.842,22.186 c -1.032,0 -1.993,-0.205 -2.879,-0.613 -0.887,-0.407 -1.652,-0.966 -2.297,-1.675 -0.646,-0.709 -1.148,-1.545 -1.51,-2.509 -0.363,-0.965 -0.545,-1.994 -0.545,-3.09 v -0.042 c 0,-1.096 0.182,-2.121 0.545,-3.079 0.361,-0.957 0.864,-1.796 1.51,-2.519 0.645,-0.723 1.416,-1.293 2.316,-1.709 0.898,-0.417 1.895,-0.625 2.981,-0.625 0.657,0 1.258,0.059 1.802,0.175 0.543,0.117 1.038,0.278 1.48,0.482 0.442,0.205 0.853,0.453 1.228,0.745 0.377,0.292 0.727,0.614 1.048,0.964 l -1.972,2.475 c -0.551,-0.54 -1.114,-0.963 -1.683,-1.27 -0.572,-0.307 -1.214,-0.46 -1.925,-0.46 -0.59,0 -1.137,0.124 -1.64,0.372 -0.505,0.249 -0.938,0.591 -1.299,1.029 -0.363,0.438 -0.646,0.947 -0.847,1.523 -0.201,0.578 -0.302,1.194 -0.302,1.852 v 0.044 c 0,0.658 0.101,1.279 0.302,1.863 0.201,0.583 0.479,1.095 0.835,1.532 0.355,0.438 0.787,0.785 1.289,1.041 0.505,0.256 1.058,0.383 1.661,0.383 0.806,0 1.488,-0.159 2.045,-0.481 0.557,-0.321 1.112,-0.759 1.661,-1.313 l 1.974,2.168 c -0.361,0.424 -0.738,0.803 -1.127,1.139 -0.389,0.336 -0.815,0.625 -1.28,0.865 -0.464,0.241 -0.971,0.424 -1.52,0.548 -0.548,0.122 -1.165,0.185 -1.851,0.185 z"
       id="path19"
       inkscape:connector-curvature="0"
       style="fill:#ece7e8" /><path
       d="M 146.067,15.877 140.65,6.588 h 3.625 l 3.363,6.156 3.424,-6.156 h 3.524 l -5.417,9.222 v 6.112 h -3.103 v -6.045 z"
       id="path21"
       inkscape:connector-curvature="0"
       style="fill:#ece7e8" /><path
       d="m 156.521,6.588 h 3.103 v 12.29 h 7.027 v 3.045 h -10.13 V 6.588 z"
       id="path23"
       inkscape:connector-curvature="0"
       style="fill:#ece7e8" /><path
       d="m 175.836,22.186 c -1.089,0 -2.088,-0.208 -3.001,-0.624 -0.914,-0.415 -1.703,-0.978 -2.366,-1.688 -0.665,-0.708 -1.182,-1.539 -1.551,-2.497 -0.371,-0.956 -0.555,-1.982 -0.555,-3.078 v -0.042 c 0,-1.096 0.188,-2.121 0.564,-3.079 0.375,-0.957 0.896,-1.796 1.561,-2.519 0.665,-0.723 1.457,-1.293 2.376,-1.709 0.92,-0.417 1.923,-0.625 3.012,-0.625 1.087,0 2.088,0.208 3.001,0.625 0.912,0.416 1.703,0.978 2.367,1.687 0.664,0.708 1.18,1.541 1.551,2.498 0.369,0.955 0.553,1.981 0.553,3.077 v 0.044 c 0,1.094 -0.188,2.121 -0.564,3.078 -0.375,0.957 -0.895,1.796 -1.56,2.519 -0.665,0.724 -1.458,1.294 -2.376,1.709 -0.922,0.416 -1.924,0.624 -3.012,0.624 z m 0.04,-3.111 c 0.619,0 1.188,-0.123 1.711,-0.372 0.524,-0.249 0.973,-0.592 1.34,-1.03 0.369,-0.437 0.659,-0.944 0.866,-1.521 0.209,-0.577 0.313,-1.194 0.313,-1.853 v -0.042 c 0,-0.657 -0.104,-1.279 -0.313,-1.862 -0.207,-0.584 -0.503,-1.096 -0.886,-1.534 -0.383,-0.438 -0.837,-0.784 -1.358,-1.041 -0.524,-0.255 -1.095,-0.382 -1.713,-0.382 -0.631,0 -1.205,0.124 -1.723,0.372 -0.517,0.249 -0.961,0.591 -1.328,1.029 -0.369,0.438 -0.659,0.947 -0.866,1.523 -0.209,0.578 -0.313,1.194 -0.313,1.852 v 0.044 c 0,0.658 0.104,1.279 0.313,1.863 0.207,0.583 0.505,1.095 0.886,1.532 0.382,0.438 0.831,0.785 1.349,1.041 0.518,0.254 1.092,0.381 1.722,0.381 z"
       id="path25"
       inkscape:connector-curvature="0"
       style="fill:#ece7e8" /><path
       d="m 186.106,6.588 h 2.861 l 6.606,9.442 V 6.588 h 3.06 v 15.334 h -2.639 l -6.828,-9.748 v 9.748 h -3.061 V 6.588 z"
       id="path27"
       inkscape:connector-curvature="0"
       style="fill:#ece7e8" /><path
       d="m 201.574,18.418 h 3.244 v 3.505 h -3.244 v -3.505 z"
       id="path29"
       inkscape:connector-curvature="0"
       style="fill:#ece7e8" /><path
       d="m 210.981,22.142 c -1.102,0 -2.023,-0.226 -2.771,-0.679 -0.744,-0.453 -1.358,-0.993 -1.842,-1.621 l 1.954,-2.366 c 0.4,0.482 0.809,0.859 1.218,1.129 0.41,0.271 0.862,0.405 1.359,0.405 0.592,0 1.054,-0.201 1.391,-0.603 0.334,-0.402 0.502,-1.047 0.502,-1.939 v -9.88 h 3.183 v 10.033 c 0,0.921 -0.114,1.717 -0.343,2.389 -0.228,0.672 -0.557,1.241 -0.985,1.709 -0.43,0.468 -0.957,0.82 -1.582,1.063 -0.624,0.239 -1.318,0.36 -2.084,0.36 z"
       id="path31"
       inkscape:connector-curvature="0"
       style="fill:#ece7e8" /><path
       d="m 224.172,22.142 c -1.072,0 -2.128,-0.2 -3.16,-0.603 -1.035,-0.4 -1.975,-1.018 -2.821,-1.85 l 1.833,-2.389 c 0.646,0.569 1.307,1.023 1.985,1.358 0.677,0.336 1.419,0.504 2.226,0.504 0.644,0 1.145,-0.127 1.5,-0.384 0.355,-0.255 0.533,-0.609 0.533,-1.063 v -0.044 c 0,-0.219 -0.036,-0.411 -0.11,-0.58 -0.075,-0.168 -0.216,-0.324 -0.425,-0.472 -0.209,-0.146 -0.499,-0.291 -0.868,-0.437 -0.371,-0.147 -0.851,-0.301 -1.444,-0.461 -0.713,-0.188 -1.358,-0.401 -1.938,-0.635 -0.578,-0.234 -1.069,-0.522 -1.474,-0.867 -0.404,-0.342 -0.717,-0.769 -0.939,-1.281 -0.223,-0.511 -0.332,-1.146 -0.332,-1.905 v -0.045 c 0,-0.701 0.117,-1.333 0.359,-1.895 0.239,-0.562 0.576,-1.048 1.009,-1.457 0.436,-0.409 0.953,-0.723 1.555,-0.942 0.601,-0.219 1.267,-0.329 1.989,-0.329 1.034,0 1.985,0.168 2.852,0.504 0.866,0.335 1.66,0.818 2.388,1.446 l -1.612,2.541 c -0.633,-0.466 -1.249,-0.835 -1.853,-1.105 -0.604,-0.271 -1.21,-0.406 -1.813,-0.406 -0.604,0 -1.058,0.128 -1.358,0.383 -0.302,0.256 -0.455,0.574 -0.455,0.953 v 0.044 c 0,0.249 0.045,0.465 0.132,0.646 0.087,0.183 0.245,0.347 0.474,0.493 0.23,0.146 0.543,0.285 0.939,0.416 0.398,0.131 0.899,0.285 1.504,0.46 0.716,0.205 1.35,0.434 1.91,0.69 0.559,0.255 1.03,0.563 1.413,0.92 0.385,0.357 0.673,0.778 0.868,1.259 0.195,0.482 0.292,1.06 0.292,1.73 v 0.044 c 0,0.759 -0.126,1.435 -0.379,2.026 -0.253,0.591 -0.607,1.088 -1.06,1.49 -0.454,0.401 -0.995,0.708 -1.626,0.92 -0.63,0.217 -1.328,0.323 -2.094,0.323 z"
       id="path33"
       inkscape:connector-curvature="0"
       style="fill:#ece7e8" /></g></svg>