<?xml version="1.0" encoding="UTF-8" standalone="no"?>
<!-- Generator: Adobe Illustrator 16.0.0, SVG Export Plug-In . SVG Version: 6.00 Build 0)  -->

<svg
   xmlns:dc="http://purl.org/dc/elements/1.1/"
   xmlns:cc="http://creativecommons.org/ns#"
   xmlns:rdf="http://www.w3.org/1999/02/22-rdf-syntax-ns#"
   xmlns:svg="http://www.w3.org/2000/svg"
   xmlns="http://www.w3.org/2000/svg"
   xmlns:xlink="http://www.w3.org/1999/xlink"
   xmlns:sodipodi="http://sodipodi.sourceforge.net/DTD/sodipodi-0.dtd"
   xmlns:inkscape="http://www.inkscape.org/namespaces/inkscape"
   version="1.1"
   id="Layer_1"
   x="0px"
   y="0px"
   width="400"
   height="400"
   viewBox="0 0 399.99998 400"
   enable-background="new 0 0 469.834 139"
   xml:space="preserve"
   inkscape:version="0.48.4 r9939"
   sodipodi:docname="tessel-logo.svg"><metadata
     id="metadata75"><rdf:RDF><cc:Work
         rdf:about=""><dc:format>image/svg+xml</dc:format><dc:type
           rdf:resource="http://purl.org/dc/dcmitype/StillImage" /></cc:Work></rdf:RDF></metadata><defs
     id="defs73" /><sodipodi:namedview
     pagecolor="#ffffff"
     bordercolor="#666666"
     borderopacity="1"
     objecttolerance="10"
     gridtolerance="10"
     guidetolerance="10"
     inkscape:pageopacity="0"
     inkscape:pageshadow="2"
     inkscape:window-width="1600"
     inkscape:window-height="872"
     id="namedview71"
     showgrid="false"
     inkscape:showpageshadow="false"
     inkscape:zoom="1.1110307"
     inkscape:cx="104.40756"
     inkscape:cy="177.50782"
     inkscape:window-x="0"
     inkscape:window-y="0"
     inkscape:window-maximized="1"
     inkscape:current-layer="Layer_1" /><rect
     style="fill:#ff4444;fill-opacity:1;stroke:none"
     id="rect3052"
     width="400"
     height="400"
     x="-9.9999997e-06"
     y="0" /><g
     id="g3"
     transform="matrix(1.188321,0,0,1.188321,-160.16169,241.06707)"><rect
       x="168.88699"
       y="58.971001"
       width="8.1440001"
       height="36.074001"
       id="rect5"
       style="fill:#ffffff" /><rect
       x="150.14301"
       y="51.900002"
       width="45.796001"
       height="8.1459999"
       id="rect7"
       style="fill:#ffffff" /><path
       d="m 210.301,60.046 h 34.242 V 51.9 h -38.338 c -2.533,0 -4.047,1.532 -4.047,4.1 v 34.891 c 0,2.562 1.551,4.154 4.047,4.154 H 244.6 V 86.9 H 210.301 V 60.046 z"
       id="path9"
       inkscape:connector-curvature="0"
       style="fill:#ffffff" /><rect
       x="208.214"
       y="67.774002"
       width="29.981001"
       height="8.1459999"
       id="rect11"
       style="fill:#ffffff" /><path
       d="m 288.072,69.509 c -3.218,0 -6.504,0.084 -9.685,0.164 -3.158,0.08 -6.426,0.161 -9.603,0.161 -9.443,0 -9.443,-1.455 -9.443,-3.863 v -2.224 c 0,-3.048 0,-4.189 12.206,-4.189 h 8.18 c 11.697,0 12.86,1.119 12.86,3.864 v 2.312 h 8.146 v -2.745 c 0,-9.951 -6.515,-11.63 -21.111,-11.63 h -7.801 c -14.546,0 -20.627,1.722 -20.627,12.388 v 2.276 c 0,11.033 8.69,11.955 17.591,11.955 2.722,0 5.483,-0.066 8.246,-0.137 2.737,-0.066 5.475,-0.135 8.169,-0.135 7.497,0 7.497,0.924 7.497,2.943 v 2.168 c 0,3.459 0,4.623 -12.858,4.623 h -8.291 c -12.534,0 -12.534,-1.174 -12.534,-5.545 v -2.854 h -8.142 v 2.963 c 0,11.576 5.458,13.635 20.837,13.635 h 8.235 c 15.421,0 20.896,-1.961 20.896,-12.986 v -2.438 c 0,-4.883 -2.213,-10.706 -12.768,-10.706 z"
       id="path13"
       inkscape:connector-curvature="0"
       style="fill:#ffffff" /><path
       d="m 345.345,69.509 c -3.214,0 -6.504,0.084 -9.685,0.164 -3.158,0.08 -6.426,0.161 -9.603,0.161 -9.442,0 -9.442,-1.455 -9.442,-3.863 v -2.224 c 0,-3.048 0,-4.189 12.205,-4.189 h 8.181 c 11.696,0 12.858,1.119 12.858,3.864 v 2.312 h 8.146 v -2.745 c 0,-9.951 -6.513,-11.63 -21.111,-11.63 h -7.801 c -14.546,0 -20.626,1.722 -20.626,12.388 v 2.276 c 0,11.033 8.689,11.955 17.59,11.955 2.721,0 5.483,-0.066 8.247,-0.137 2.738,-0.066 5.475,-0.135 8.168,-0.135 7.497,0 7.497,0.924 7.497,2.943 v 2.168 c 0,3.459 0,4.623 -12.858,4.623 h -8.291 c -12.532,0 -12.532,-1.174 -12.532,-5.545 v -2.854 h -8.144 v 2.963 c 0,11.576 5.458,13.635 20.839,13.635 h 8.234 c 15.421,0 20.895,-1.961 20.895,-12.986 v -2.438 c 0,-4.883 -2.213,-10.706 -12.767,-10.706 z"
       id="path15"
       inkscape:connector-curvature="0"
       style="fill:#ffffff" /><path
       d="m 374.375,60.046 h 34.241 V 51.9 h -38.341 c -2.533,0 -4.047,1.532 -4.047,4.1 v 34.891 c 0,2.562 1.551,4.154 4.047,4.154 h 38.394 V 86.9 H 374.375 V 60.046 z"
       id="path17"
       inkscape:connector-curvature="0"
       style="fill:#ffffff" /><rect
       x="372.28699"
       y="67.774002"
       width="29.976999"
       height="8.1459999"
       id="rect19"
       style="fill:#ffffff" /><path
       d="m 423.898,86.9 v -35 h -8.144 v 38.99 c 0,2.562 1.548,4.154 4.043,4.154 h 36.229 V 86.9 h -32.128 z"
       id="path21"
       inkscape:connector-curvature="0"
       style="fill:#ffffff" /></g><g
     id="g23"
     transform="matrix(1.7315115,0,0,1.7175749,76.148435,36.512461)"><g
       id="g25"><defs
         id="defs27"><rect
           id="SVGID_1_"
           x="3.997"
           y="1.998"
           width="135.06"
           height="135.06" /></defs><clipPath
         id="SVGID_2_"><use
           xlink:href="#SVGID_1_"
           overflow="visible"
           id="use31"
           style="overflow:visible"
           x="0"
           y="0"
           width="469.83401"
           height="139" /></clipPath><g
         clip-path="url(#SVGID_2_)"
         id="g33"><defs
           id="defs35"><rect
             id="SVGID_3_"
             x="3.9990001"
             y="2"
             width="135.058"
             height="135.058" /></defs><clipPath
           id="SVGID_4_"><use
             xlink:href="#SVGID_3_"
             overflow="visible"
             id="use39"
             style="overflow:visible"
             x="0"
             y="0"
             width="469.83401"
             height="139" /></clipPath><path
           clip-path="url(#SVGID_4_)"
           stroke-miterlimit="10"
           d="m 117.773,100.585 c 0,-2.525 2.045,-4.575 4.574,-4.575 2.53,0 4.575,2.05 4.575,4.575 0,2.524 -2.045,4.574 -4.575,4.574 -2.529,0 -4.574,-2.05 -4.574,-4.574 z"
           id="path41"
           inkscape:connector-curvature="0"
           style="fill:none;stroke:#ffffff;stroke-width:3.75;stroke-linecap:round;stroke-miterlimit:10" /><circle
           clip-path="url(#SVGID_4_)"
           stroke-miterlimit="10"
           cx="20.708"
           cy="100.585"
           r="4.5739999"
           id="circle43"
           sodipodi:cx="20.708"
           sodipodi:cy="100.585"
           sodipodi:rx="4.5739999"
           sodipodi:ry="4.5739999"
           style="fill:none;stroke:#ffffff;stroke-width:3.75;stroke-linecap:round;stroke-miterlimit:10"
           d="m 25.282,100.585 c 0,2.52615 -2.047849,4.574 -4.574,4.574 -2.52615,0 -4.574,-2.04785 -4.574,-4.574 0,-2.526151 2.04785,-4.574001 4.574,-4.574001 2.526151,0 4.574,2.04785 4.574,4.574001 z" /><circle
           clip-path="url(#SVGID_4_)"
           stroke-miterlimit="10"
           cx="71.525002"
           cy="11.563"
           r="4.5739999"
           id="circle45"
           sodipodi:cx="71.525002"
           sodipodi:cy="11.563"
           sodipodi:rx="4.5739999"
           sodipodi:ry="4.5739999"
           style="fill:none;stroke:#ffffff;stroke-width:3.75;stroke-linecap:round;stroke-miterlimit:10"
           d="m 76.099001,11.563 c 0,2.52615 -2.047849,4.574 -4.573999,4.574 -2.526151,0 -4.574,-2.04785 -4.574,-4.574 0,-2.5261507 2.047849,-4.5740002 4.574,-4.5740002 2.52615,0 4.573999,2.0478495 4.573999,4.5740002 z" /></g><polyline
         clip-path="url(#SVGID_2_)"
         stroke-miterlimit="10"
         points="    56.611,20.468 20.711,41.904 20.708,71.745   "
         id="polyline47"
         style="fill:none;stroke:#ffffff;stroke-width:3.75;stroke-linecap:round;stroke-miterlimit:10" /><polyline
         clip-path="url(#SVGID_2_)"
         stroke-miterlimit="10"
         points="    122.345,89.527 122.347,41.905 91.568,23.529   "
         id="polyline49"
         style="fill:none;stroke:#ffffff;stroke-width:3.75;stroke-linecap:round;stroke-miterlimit:10" /><g
         clip-path="url(#SVGID_2_)"
         id="g51"><defs
           id="defs53"><rect
             id="SVGID_5_"
             x="3.9990001"
             y="2"
             width="135.058"
             height="135.058" /></defs><clipPath
           id="SVGID_6_"><use
             xlink:href="#SVGID_5_"
             overflow="visible"
             id="use57"
             style="overflow:visible"
             x="0"
             y="0"
             width="469.83401"
             height="139" /></clipPath><polyline
           clip-path="url(#SVGID_6_)"
           stroke-miterlimit="10"
           points="     33.608,108.032 71.526,129.925 99.466,113.794    "
           id="polyline59"
           style="fill:none;stroke:#ffffff;stroke-width:3.75;stroke-linecap:round;stroke-miterlimit:10" /></g><line
         clip-path="url(#SVGID_2_)"
         stroke-miterlimit="10"
         x1="122.345"
         y1="89.527"
         x2="122.347"
         y2="92.959999"
         id="line61"
         style="fill:none;stroke:#ffffff;stroke-width:3.75;stroke-linecap:round;stroke-miterlimit:10" /><line
         clip-path="url(#SVGID_2_)"
         stroke-miterlimit="10"
         x1="33.608002"
         y1="108.032"
         x2="27.323999"
         y2="104.309"
         id="line63"
         style="fill:none;stroke:#ffffff;stroke-width:3.75;stroke-linecap:round;stroke-miterlimit:10" /><line
         clip-path="url(#SVGID_2_)"
         stroke-miterlimit="10"
         x1="56.611"
         y1="20.468"
         x2="64.998001"
         y2="15.46"
         id="line65"
         style="fill:none;stroke:#ffffff;stroke-width:3.75;stroke-linecap:round;stroke-miterlimit:10" /><polygon
         clip-path="url(#SVGID_2_)"
         points="45.554,51.996 45.554,63.851 62.352,63.851 62.352,97.449 70.326,97.449 70.326,51.996 "
         id="polygon67"
         style="fill:#ffffff" /><polygon
         clip-path="url(#SVGID_2_)"
         points="97.5,51.996 72.446,51.996 72.446,97.446 80.425,97.446 80.425,63.851 97.5,63.851 "
         id="polygon69"
         style="fill:#ffffff" /></g></g></svg>