<?xml version="1.0" encoding="UTF-8"?>
<svg enable-background="new 0 0 230 30" version="1.1" viewBox="0 0 230 230" xml:space="preserve" xmlns="http://www.w3.org/2000/svg" xmlns:cc="http://creativecommons.org/ns#" xmlns:dc="http://purl.org/dc/elements/1.1/" xmlns:rdf="http://www.w3.org/1999/02/22-rdf-syntax-ns#" xmlns:xlink="http://www.w3.org/1999/xlink"><metadata><rdf:RDF><cc:Work rdf:about=""><dc:format>image/svg+xml</dc:format><dc:type rdf:resource="http://purl.org/dc/dcmitype/StillImage"/></cc:Work></rdf:RDF></metadata><rect width="230" height="230" fill="#4d050b"/><g transform="matrix(1.6122 0 0 1.6122 20.343 -248.12)"><polygon transform="translate(0,200)" points="1.496 23.623 1.496 5.693 57.957 0.315 115.93 5.688 115.93 23.628 57.957 29" fill="#ece7e8"/><polygon transform="translate(0,200)" points="112.62 20.853 57.972 25.444 4.809 20.853 4.809 8.463 57.972 3.872 112.62 8.463" fill="#212120"/><g transform="translate(0,200)"><defs><polygon id="b" points="112.62 19.925 57.972 23.829 4.809 19.925 4.809 9.391 57.972 5.487 112.62 9.391"/></defs><clipPath id="a"><use width="230" height="30" overflow="visible" xlink:href="#b"/></clipPath><rect x="48.441" y="3.919" width="17.465" height="19.849" clip-path="url(#a)" fill="#ed2e4a"/></g></g><g transform="matrix(1.6122 0 0 1.6122 -171.93 119.4)" fill="#ece7e8"><path d="m133.84 22.186c-1.032 0-1.993-0.205-2.879-0.613-0.887-0.407-1.652-0.966-2.297-1.675-0.646-0.709-1.148-1.545-1.51-2.509-0.363-0.965-0.545-1.994-0.545-3.09v-0.042c0-1.096 0.182-2.121 0.545-3.079 0.361-0.957 0.864-1.796 1.51-2.519 0.645-0.723 1.416-1.293 2.316-1.709 0.898-0.417 1.895-0.625 2.981-0.625 0.657 0 1.258 0.059 1.802 0.175 0.543 0.117 1.038 0.278 1.48 0.482 0.442 0.205 0.853 0.453 1.228 0.745 0.377 0.292 0.727 0.614 1.048 0.964l-1.972 2.475c-0.551-0.54-1.114-0.963-1.683-1.27-0.572-0.307-1.214-0.46-1.925-0.46-0.59 0-1.137 0.124-1.64 0.372-0.505 0.249-0.938 0.591-1.299 1.029-0.363 0.438-0.646 0.947-0.847 1.523-0.201 0.578-0.302 1.194-0.302 1.852v0.044c0 0.658 0.101 1.279 0.302 1.863 0.201 0.583 0.479 1.095 0.835 1.532 0.355 0.438 0.787 0.785 1.289 1.041 0.505 0.256 1.058 0.383 1.661 0.383 0.806 0 1.488-0.159 2.045-0.481 0.557-0.321 1.112-0.759 1.661-1.313l1.974 2.168c-0.361 0.424-0.738 0.803-1.127 1.139s-0.815 0.625-1.28 0.865c-0.464 0.241-0.971 0.424-1.52 0.548-0.548 0.122-1.165 0.185-1.851 0.185z"/><path d="m146.07 15.877-5.417-9.289h3.625l3.363 6.156 3.424-6.156h3.524l-5.417 9.222v6.112h-3.103v-6.045z"/><path d="m156.52 6.588h3.103v12.29h7.027v3.045h-10.13v-15.335z"/><path d="m175.84 22.186c-1.089 0-2.088-0.208-3.001-0.624-0.914-0.415-1.703-0.978-2.366-1.688-0.665-0.708-1.182-1.539-1.551-2.497-0.371-0.956-0.555-1.982-0.555-3.078v-0.042c0-1.096 0.188-2.121 0.564-3.079 0.375-0.957 0.896-1.796 1.561-2.519s1.457-1.293 2.376-1.709c0.92-0.417 1.923-0.625 3.012-0.625 1.087 0 2.088 0.208 3.001 0.625 0.912 0.416 1.703 0.978 2.367 1.687 0.664 0.708 1.18 1.541 1.551 2.498 0.369 0.955 0.553 1.981 0.553 3.077v0.044c0 1.094-0.188 2.121-0.564 3.078-0.375 0.957-0.895 1.796-1.56 2.519-0.665 0.724-1.458 1.294-2.376 1.709-0.922 0.416-1.924 0.624-3.012 0.624zm0.04-3.111c0.619 0 1.188-0.123 1.711-0.372 0.524-0.249 0.973-0.592 1.34-1.03 0.369-0.437 0.659-0.944 0.866-1.521 0.209-0.577 0.313-1.194 0.313-1.853v-0.042c0-0.657-0.104-1.279-0.313-1.862-0.207-0.584-0.503-1.096-0.886-1.534s-0.837-0.784-1.358-1.041c-0.524-0.255-1.095-0.382-1.713-0.382-0.631 0-1.205 0.124-1.723 0.372-0.517 0.249-0.961 0.591-1.328 1.029-0.369 0.438-0.659 0.947-0.866 1.523-0.209 0.578-0.313 1.194-0.313 1.852v0.044c0 0.658 0.104 1.279 0.313 1.863 0.207 0.583 0.505 1.095 0.886 1.532 0.382 0.438 0.831 0.785 1.349 1.041 0.518 0.254 1.092 0.381 1.722 0.381z"/><path d="m186.11 6.588h2.861l6.606 9.442v-9.442h3.06v15.334h-2.639l-6.828-9.748v9.748h-3.061v-15.334z"/><path d="m201.57 18.418h3.244v3.505h-3.244v-3.505z"/><path d="m210.98 22.142c-1.102 0-2.023-0.226-2.771-0.679-0.744-0.453-1.358-0.993-1.842-1.621l1.954-2.366c0.4 0.482 0.809 0.859 1.218 1.129 0.41 0.271 0.862 0.405 1.359 0.405 0.592 0 1.054-0.201 1.391-0.603 0.334-0.402 0.502-1.047 0.502-1.939v-9.88h3.183v10.033c0 0.921-0.114 1.717-0.343 2.389-0.228 0.672-0.557 1.241-0.985 1.709-0.43 0.468-0.957 0.82-1.582 1.063-0.624 0.239-1.318 0.36-2.084 0.36z"/><path d="m224.17 22.142c-1.072 0-2.128-0.2-3.16-0.603-1.035-0.4-1.975-1.018-2.821-1.85l1.833-2.389c0.646 0.569 1.307 1.023 1.985 1.358 0.677 0.336 1.419 0.504 2.226 0.504 0.644 0 1.145-0.127 1.5-0.384 0.355-0.255 0.533-0.609 0.533-1.063v-0.044c0-0.219-0.036-0.411-0.11-0.58-0.075-0.168-0.216-0.324-0.425-0.472-0.209-0.146-0.499-0.291-0.868-0.437-0.371-0.147-0.851-0.301-1.444-0.461-0.713-0.188-1.358-0.401-1.938-0.635-0.578-0.234-1.069-0.522-1.474-0.867-0.404-0.342-0.717-0.769-0.939-1.281-0.223-0.511-0.332-1.146-0.332-1.905v-0.045c0-0.701 0.117-1.333 0.359-1.895 0.239-0.562 0.576-1.048 1.009-1.457 0.436-0.409 0.953-0.723 1.555-0.942 0.601-0.219 1.267-0.329 1.989-0.329 1.034 0 1.985 0.168 2.852 0.504 0.866 0.335 1.66 0.818 2.388 1.446l-1.612 2.541c-0.633-0.466-1.249-0.835-1.853-1.105-0.604-0.271-1.21-0.406-1.813-0.406-0.604 0-1.058 0.128-1.358 0.383-0.302 0.256-0.455 0.574-0.455 0.953v0.044c0 0.249 0.045 0.465 0.132 0.646 0.087 0.183 0.245 0.347 0.474 0.493 0.23 0.146 0.543 0.285 0.939 0.416 0.398 0.131 0.899 0.285 1.504 0.46 0.716 0.205 1.35 0.434 1.91 0.69 0.559 0.255 1.03 0.563 1.413 0.92 0.385 0.357 0.673 0.778 0.868 1.259 0.195 0.482 0.292 1.06 0.292 1.73v0.044c0 0.759-0.126 1.435-0.379 2.026s-0.607 1.088-1.06 1.49c-0.454 0.401-0.995 0.708-1.626 0.92-0.63 0.217-1.328 0.323-2.094 0.323z"/></g></svg>
