<svg xmlns="http://www.w3.org/2000/svg" width="430" height="430" viewBox="0 0 430 430"><path fill="#f9f9f9" stroke="#2c3e50" stroke-width=".223" stroke-linecap="round" stroke-linejoin="round" d="M.11.11H429.89V429.89H.11z"/><path d="M277.218 178.14c-1.168.036-2.426.468-3.853 1.593-3.494-1.347-6.884-1.816-9.914.928-4.678-.606-6.2.647-7.35 2.11-1.03-.022-7.688-1.057-10.742 3.5-7.675-.91-10.1 4.513-7.352 9.57-1.568 2.426-3.192 4.823.474 9.45-1.297 2.576-.493 5.37 2.562 8.753-.806 3.622.778 6.177 3.62 8.17-.53 4.955 4.546 7.837 6.06 8.864.584 2.888 1.797 5.614 7.595 7.12.957 4.304 4.442 5.047 7.817 5.95-11.154 6.484-20.72 15.015-20.655 35.946l-1.635 2.914c-12.79 7.778-24.297 32.777-6.302 53.096 1.175 6.36 3.146 10.93 4.9 15.985 2.626 20.374 19.757 29.914 24.276 31.042 6.62 5.044 13.673 9.83 23.217 13.182 8.995 9.277 18.74 12.814 28.54 12.808.144 0 19.98-3.53 28.975-12.808 9.543-3.353 16.595-8.138 23.217-13.182 4.517-1.128 21.648-10.668 24.273-31.042 1.755-5.056 3.727-9.625 4.902-15.985 17.993-20.32 6.487-45.32-6.302-53.098l-1.637-2.915c.065-20.93-9.5-29.46-20.655-35.945 3.376-.903 6.862-1.647 7.817-5.95 5.8-1.508 7.013-4.233 7.594-7.12 1.517-1.027 6.594-3.91 6.063-8.866 2.84-1.993 4.426-4.548 3.62-8.17 3.055-3.382 3.858-6.177 2.562-8.754 3.667-4.624 2.04-7.02.474-9.447 2.746-5.058.322-10.48-7.356-9.572-3.052-4.556-9.71-3.52-10.74-3.5-1.152-1.462-2.673-2.715-7.352-2.108-3.03-2.743-6.42-2.276-9.914-.928-4.15-3.274-6.896-.65-10.033.343-5.025-1.642-6.175.607-8.643 1.523-5.48-1.158-7.146 1.363-9.772 4.024l-3.056-.06c-8.266 4.87-12.372 14.79-13.827 19.888-1.456-5.1-5.553-15.018-13.817-19.89l-3.056.062c-2.63-2.66-4.295-5.182-9.775-4.024-2.47-.916-3.615-3.165-8.644-1.523-2.06-.65-3.952-2.005-6.18-1.936l-56.732 99.62"/><path d="M260.763 199.57c21.928 11.304 34.676 20.45 41.66 28.24-3.576 14.334-22.235 14.988-29.057 14.586 1.397-.65 2.563-1.43 2.976-2.626-1.712-1.216-7.782-.128-12.02-2.51 1.628-.336 2.39-.665 3.15-1.866-4.003-1.277-8.315-2.377-10.852-4.493 1.37.018 2.647.308 4.434-.932-3.585-1.933-7.412-3.464-10.385-6.418 1.853-.046 3.852-.02 4.433-.7-3.282-2.034-6.05-4.295-8.343-6.77 2.594.314 3.69.045 4.317-.407-2.48-2.54-5.62-4.687-7.118-7.82 1.925.666 3.688.92 4.958-.057-.843-1.902-4.455-3.024-6.535-7.468 2.03.197 4.18.442 4.61 0-.94-3.836-2.557-5.992-4.14-8.226 4.34-.064 10.916.017 10.62-.35l-2.685-2.742c4.24-1.142 8.578.183 11.728 1.167 1.413-1.116-.026-2.527-1.75-3.968 3.602.48 6.858 1.31 9.8 2.45 1.573-1.42-1.02-2.84-2.274-4.26 5.566 1.056 7.925 2.54 10.268 4.027 1.7-1.63.098-3.016-1.05-4.435 4.198 1.555 6.36 3.562 8.636 5.543.77-1.04 1.96-1.805.525-4.318 2.98 1.718 5.226 3.742 6.886 6.01 1.844-1.174 1.1-2.78 1.11-4.26 3.096 2.52 5.062 5.2 7.468 7.82.484-.354.908-1.55 1.283-3.443 7.39 7.168 17.83 25.223 2.684 32.382-12.89-10.63-28.283-18.358-45.342-24.154l.005-.003m116.352 0c-21.926 11.306-34.674 20.448-41.657 28.24 3.576 14.334 22.234 14.988 29.056 14.586-1.396-.65-2.562-1.43-2.975-2.626 1.71-1.216 7.78-.128 12.018-2.51-1.628-.336-2.39-.665-3.15-1.866 4.004-1.277 8.316-2.377 10.852-4.493-1.368.018-2.646.308-4.434-.932 3.586-1.933 7.413-3.464 10.386-6.418-1.854-.046-3.853-.02-4.434-.7 3.282-2.034 6.05-4.295 8.344-6.77-2.596.314-3.69.045-4.318-.407 2.48-2.54 5.62-4.687 7.118-7.82-1.926.666-3.69.92-4.96-.057.843-1.902 4.456-3.024 6.535-7.468-2.028.197-4.18.442-4.61 0 .944-3.837 2.56-5.993 4.143-8.227-4.34-.064-10.917.018-10.62-.35l2.685-2.742c-4.24-1.14-8.578.184-11.728 1.167-1.414-1.115.025-2.526 1.75-3.967-3.603.48-6.86 1.31-9.802 2.45-1.573-1.42 1.02-2.84 2.276-4.26-5.566 1.057-7.924 2.54-10.27 4.027-1.7-1.63-.095-3.015 1.052-4.434-4.198 1.555-6.36 3.563-8.635 5.544-.773-1.042-1.96-1.806-.526-4.318-2.98 1.718-5.223 3.742-6.884 6.01-1.844-1.174-1.098-2.78-1.108-4.26-3.098 2.52-5.063 5.2-7.47 7.82-.484-.355-.908-1.55-1.283-3.444-7.388 7.168-17.83 25.224-2.683 32.383 12.882-10.634 28.276-18.36 45.336-24.156h-.003" fill="#75a928"/><path d="M345.495 345.54c.076 13.377-11.622 24.278-26.128 24.348-14.507.07-26.33-10.716-26.405-24.093a15.346 15.346 0 0 1 0-.255c-.076-13.376 11.62-24.277 26.128-24.348 14.507-.07 26.328 10.716 26.405 24.093v.255m-41.465-69.19c10.884 7.13 12.846 23.293 4.382 36.1-8.464 12.807-24.148 17.41-35.03 10.28-10.885-7.132-12.846-23.295-4.383-36.102 8.462-12.807 24.146-17.41 35.03-10.28m29.375-1.29c-10.883 7.13-12.845 23.294-4.382 36.1 8.464 12.81 24.148 17.41 35.03 10.28 10.885-7.13 12.847-23.294 4.383-36.1-8.463-12.808-24.146-17.41-35.03-10.28m-83.77 12.95c11.75-3.15 3.966 48.61-5.595 44.364-10.516-8.458-13.903-33.23 5.595-44.365m135.794-.645c-11.753-3.15-3.968 48.615 5.593 44.368 10.517-8.46 13.904-33.234-5.594-44.368m-39.926-38.547c20.28-3.424 37.152 8.624 36.47 30.613-.666 8.43-43.94-29.358-36.47-30.613m-56.03-.645c-20.28-3.425-37.15 8.626-36.47 30.614.667 8.43 43.943-29.36 36.47-30.614m29.13-5.128c-12.103-.315-23.718 8.982-23.746 14.375-.034 6.553 9.57 13.262 23.83 13.432 14.56.103 23.854-5.37 23.9-12.134.054-7.66-13.244-15.793-23.983-15.675v.002m.74 134.37c10.55-.46 24.71 3.4 24.738 8.52.176 4.97-12.84 16.203-25.44 15.986-13.046.563-25.84-10.687-25.672-14.586-.195-5.718 15.887-10.182 26.374-9.92m-38.976-30.342c7.512 9.05 10.938 24.952 4.668 29.64-5.93 3.58-20.336 2.105-30.574-12.603-6.905-12.342-6.015-24.9-1.167-28.59 7.25-4.417 18.452 1.55 27.074 11.553h-.002m76.448-2.87c-8.13 9.52-12.655 26.887-6.726 32.48 5.67 4.345 20.89 3.737 32.133-11.862 8.164-10.478 5.43-27.975.765-32.622-6.926-5.357-16.87 1.5-26.172 12.002v.003" fill="#bc1142"/><g fill="#00969b"><path d="M332.547 99.834c0-39.55-33.36-71.727-74.366-71.727-3.784 0-7.633.26-11.44.81-31.865 4.544-53.19 27.466-65.124 45.043-11.976-17.577-33.3-40.498-65.155-45.044-3.807-.552-7.665-.81-11.44-.81-41.027 0-74.38 32.177-74.38 71.728 0 39.556 33.352 71.713 74.348 71.713 3.807 0 7.665-.237 11.47-.785 31.856-4.57 53.18-27.5 65.155-45.096 11.935 17.595 33.26 40.526 65.125 45.096 3.807.547 7.653.785 11.47.785 41-.003 74.34-32.158 74.34-71.713m-219.697 45.74c-2.6.377-5.25.573-7.86.573-26.966 0-48.918-20.796-48.918-46.313 0-25.53 21.952-46.33 48.95-46.33 2.59 0 5.23.213 7.84.568 30.017 4.286 48.4 33.893 54.632 45.746-6.24 11.885-24.613 41.476-54.643 45.757m82.868-45.74c6.23-11.87 24.602-41.474 54.623-45.76 2.6-.358 5.262-.568 7.84-.568 26.986 0 48.94 20.796 48.94 46.33 0 25.516-21.95 46.31-48.908 46.31-2.6 0-5.25-.194-7.87-.57-30.02-4.283-48.415-33.9-54.624-45.743"/><path d="M84.524 92.823h44.66v14.39h-44.66zM233.588 107.214h15.11v15.146h14.433v-15.146h15.094v-14.39H263.13V77.678H248.7v15.143h-15.112M332.35 32.455c-.42-.98-.978-1.82-1.702-2.532-.7-.71-1.537-1.273-2.485-1.7-.96-.42-1.99-.63-3.096-.63-1.114 0-2.146.21-3.093.63-.96.427-1.797.988-2.498 1.7-.71.71-1.278 1.552-1.703 2.532-.423.97-.63 2.038-.63 3.194 0 1.108.205 2.16.63 3.156.422 1 .99 1.852 1.703 2.558.7.716 1.537 1.285 2.498 1.71.948.42 1.982.627 3.093.627 1.105 0 2.136-.204 3.096-.627.95-.423 1.784-.99 2.485-1.71.72-.705 1.278-1.556 1.703-2.557.415-.994.63-2.048.63-3.157 0-1.157-.216-2.225-.63-3.195zm-1.74 5.632c-.31.753-.754 1.408-1.31 1.97-.568.566-1.208 1.02-1.92 1.35-.71.335-1.484.5-2.31.5-.836 0-1.62-.165-2.35-.5-.734-.33-1.372-.785-1.92-1.35-.537-.563-.96-1.218-1.276-1.97-.31-.753-.465-1.57-.465-2.438 0-.88.153-1.704.464-2.477.32-.775.742-1.44 1.277-2.002.548-.56 1.187-1.006 1.92-1.313.733-.315 1.517-.474 2.35-.474.826 0 1.598.16 2.31.474.712.31 1.353.753 1.92 1.314.556.564 1 1.228 1.31 2.003.31.774.463 1.598.463 2.476 0 .87-.156 1.684-.464 2.437z"/><path d="M326.792 36.428c.455-.227.794-.538 1.04-.934.238-.4.362-.85.362-1.332 0-.752-.27-1.412-.804-1.964-.525-.553-1.434-.836-2.722-.836-.484 0-.92.01-1.3.036-.38.027-.742.056-1.09.103v7.92h1.99v-2.596h.804l1.393 2.595h2.27l-1.943-2.992zm-1.992-1.073c-.27 0-.474-.015-.6-.06v-2.132c.125-.042.353-.066.66-.066.846 0 1.27.37 1.27 1.128.002.76-.443 1.13-1.33 1.13z"/></g><path fill="#2e2e2c" d="M111.95 313.428h41.538V273.82H111.95v-41.677H72.23v41.678H30.64v39.608h41.59v41.685h39.72"/></svg>