<?xml version="1.0" encoding="UTF-8"?>
<svg width="400" height="400" enable-background="new 0 0 469.834 139" version="1.1" viewBox="0 0 399.99998 400" xml:space="preserve" xmlns="http://www.w3.org/2000/svg" xmlns:cc="http://creativecommons.org/ns#" xmlns:dc="http://purl.org/dc/elements/1.1/" xmlns:rdf="http://www.w3.org/1999/02/22-rdf-syntax-ns#" xmlns:xlink="http://www.w3.org/1999/xlink"><metadata><rdf:RDF><cc:Work rdf:about=""><dc:format>image/svg+xml</dc:format><dc:type rdf:resource="http://purl.org/dc/dcmitype/StillImage"/></cc:Work></rdf:RDF></metadata><rect x="-1e-5" width="400" height="400" fill="#f44"/><g transform="matrix(1.1883 0 0 1.1883 -160.16 241.07)" fill="#fff"><rect x="168.89" y="58.971" width="8.144" height="36.074"/><rect x="150.14" y="51.9" width="45.796" height="8.146"/><path d="m210.3 60.046h34.242v-8.146h-38.338c-2.533 0-4.047 1.532-4.047 4.1v34.891c0 2.562 1.551 4.154 4.047 4.154h38.395v-8.145h-34.299v-26.854z"/><rect x="208.21" y="67.774" width="29.981" height="8.146"/><path d="m288.07 69.509c-3.218 0-6.504 0.084-9.685 0.164-3.158 0.08-6.426 0.161-9.603 0.161-9.443 0-9.443-1.455-9.443-3.863v-2.224c0-3.048 0-4.189 12.206-4.189h8.18c11.697 0 12.86 1.119 12.86 3.864v2.312h8.146v-2.745c0-9.951-6.515-11.63-21.111-11.63h-7.801c-14.546 0-20.627 1.722-20.627 12.388v2.276c0 11.033 8.69 11.955 17.591 11.955 2.722 0 5.483-0.066 8.246-0.137 2.737-0.066 5.475-0.135 8.169-0.135 7.497 0 7.497 0.924 7.497 2.943v2.168c0 3.459 0 4.623-12.858 4.623h-8.291c-12.534 0-12.534-1.174-12.534-5.545v-2.854h-8.142v2.963c0 11.576 5.458 13.635 20.837 13.635h8.235c15.421 0 20.896-1.961 20.896-12.986v-2.438c0-4.883-2.213-10.706-12.768-10.706z"/><path d="m345.34 69.509c-3.214 0-6.504 0.084-9.685 0.164-3.158 0.08-6.426 0.161-9.603 0.161-9.442 0-9.442-1.455-9.442-3.863v-2.224c0-3.048 0-4.189 12.205-4.189h8.181c11.696 0 12.858 1.119 12.858 3.864v2.312h8.146v-2.745c0-9.951-6.513-11.63-21.111-11.63h-7.801c-14.546 0-20.626 1.722-20.626 12.388v2.276c0 11.033 8.689 11.955 17.59 11.955 2.721 0 5.483-0.066 8.247-0.137 2.738-0.066 5.475-0.135 8.168-0.135 7.497 0 7.497 0.924 7.497 2.943v2.168c0 3.459 0 4.623-12.858 4.623h-8.291c-12.532 0-12.532-1.174-12.532-5.545v-2.854h-8.144v2.963c0 11.576 5.458 13.635 20.839 13.635h8.234c15.421 0 20.895-1.961 20.895-12.986v-2.438c0-4.883-2.213-10.706-12.767-10.706z"/><path d="m374.38 60.046h34.241v-8.146h-38.341c-2.533 0-4.047 1.532-4.047 4.1v34.891c0 2.562 1.551 4.154 4.047 4.154h38.394v-8.145h-34.294v-26.854z"/><rect x="372.29" y="67.774" width="29.977" height="8.146"/><path d="m423.9 86.9v-35h-8.144v38.99c0 2.562 1.548 4.154 4.043 4.154h36.229v-8.144h-32.128z"/></g><g transform="matrix(1.7315 0 0 1.7176 76.148 36.512)"><defs><rect id="f" x="3.997" y="1.998" width="135.06" height="135.06"/></defs><clipPath id="a"><use width="469.83401" height="139" overflow="visible" xlink:href="#f"/></clipPath><g clip-path="url(#a)"><defs><rect id="e" x="3.999" y="2" width="135.06" height="135.06"/></defs><clipPath id="b"><use width="469.83401" height="139" overflow="visible" xlink:href="#e"/></clipPath><path d="m117.77 100.58c0-2.525 2.045-4.575 4.574-4.575 2.53 0 4.575 2.05 4.575 4.575 0 2.524-2.045 4.574-4.575 4.574-2.529 0-4.574-2.05-4.574-4.574z" clip-path="url(#b)" fill="none" stroke="#fff" stroke-linecap="round" stroke-miterlimit="10" stroke-width="3.75"/><circle cx="20.708" cy="100.58" r="4.574" d="m 25.282,100.585 c 0,2.52615 -2.047849,4.574 -4.574,4.574 -2.52615,0 -4.574,-2.04785 -4.574,-4.574 0,-2.526151 2.04785,-4.574001 4.574,-4.574001 2.526151,0 4.574,2.04785 4.574,4.574001 z" clip-path="url(#b)" fill="none" stroke="#fff" stroke-linecap="round" stroke-miterlimit="10" stroke-width="3.75"/><circle cx="71.525" cy="11.563" r="4.574" d="m 76.099001,11.563 c 0,2.52615 -2.047849,4.574 -4.573999,4.574 -2.526151,0 -4.574,-2.04785 -4.574,-4.574 0,-2.5261507 2.047849,-4.5740002 4.574,-4.5740002 2.52615,0 4.573999,2.0478495 4.573999,4.5740002 z" clip-path="url(#b)" fill="none" stroke="#fff" stroke-linecap="round" stroke-miterlimit="10" stroke-width="3.75"/></g><polyline points="56.611 20.468 20.711 41.904 20.708 71.745" clip-path="url(#a)" fill="none" stroke="#fff" stroke-linecap="round" stroke-miterlimit="10" stroke-width="3.75"/><polyline points="122.34 89.527 122.35 41.905 91.568 23.529" clip-path="url(#a)" fill="none" stroke="#fff" stroke-linecap="round" stroke-miterlimit="10" stroke-width="3.75"/><g clip-path="url(#a)"><defs><rect id="d" x="3.999" y="2" width="135.06" height="135.06"/></defs><clipPath id="c"><use width="469.83401" height="139" overflow="visible" xlink:href="#d"/></clipPath><polyline points="33.608 108.03 71.526 129.92 99.466 113.79" clip-path="url(#c)" fill="none" stroke="#fff" stroke-linecap="round" stroke-miterlimit="10" stroke-width="3.75"/></g><line x1="122.34" x2="122.35" y1="89.527" y2="92.96" clip-path="url(#a)" fill="none" stroke="#fff" stroke-linecap="round" stroke-miterlimit="10" stroke-width="3.75"/><line x1="33.608" x2="27.324" y1="108.03" y2="104.31" clip-path="url(#a)" fill="none" stroke="#fff" stroke-linecap="round" stroke-miterlimit="10" stroke-width="3.75"/><line x1="56.611" x2="64.998" y1="20.468" y2="15.46" clip-path="url(#a)" fill="none" stroke="#fff" stroke-linecap="round" stroke-miterlimit="10" stroke-width="3.75"/><polygon points="45.554 51.996 45.554 63.851 62.352 63.851 62.352 97.449 70.326 97.449 70.326 51.996" clip-path="url(#a)" fill="#fff"/><polygon points="97.5 51.996 72.446 51.996 72.446 97.446 80.425 97.446 80.425 63.851 97.5 63.851" clip-path="url(#a)" fill="#fff"/></g></svg>
