<?xml version="1.0" encoding="UTF-8" standalone="no"?>
<!-- Created with Inkscape (http://www.inkscape.org/) -->

<svg
   xmlns:dc="http://purl.org/dc/elements/1.1/"
   xmlns:cc="http://creativecommons.org/ns#"
   xmlns:rdf="http://www.w3.org/1999/02/22-rdf-syntax-ns#"
   xmlns:svg="http://www.w3.org/2000/svg"
   xmlns="http://www.w3.org/2000/svg"
   xmlns:sodipodi="http://sodipodi.sourceforge.net/DTD/sodipodi-0.dtd"
   xmlns:inkscape="http://www.inkscape.org/namespaces/inkscape"
   width="256"
   height="256"
   id="svg2"
   version="1.1"
   inkscape:version="0.48.4 r9939"
   sodipodi:docname="led.svg"
   inkscape:export-filename="/home/atila/NetBeansProjects/wireless-monitor/packages/fidias/blinkleds/src/assets/svg/led.png"
   inkscape:export-xdpi="5.6199999"
   inkscape:export-ydpi="5.6199999">
  <defs
     id="defs4" />
  <sodipodi:namedview
     id="base"
     pagecolor="#ffffff"
     bordercolor="#666666"
     borderopacity="1.0"
     inkscape:pageopacity="0.0"
     inkscape:pageshadow="2"
     inkscape:zoom="1.4722184"
     inkscape:cx="58.053201"
     inkscape:cy="97.746442"
     inkscape:document-units="px"
     inkscape:current-layer="layer1"
     showgrid="false"
     inkscape:showpageshadow="false"
     inkscape:window-width="1366"
     inkscape:window-height="744"
     inkscape:window-x="0"
     inkscape:window-y="0"
     inkscape:window-maximized="1" />
  <metadata
     id="metadata7">
    <rdf:RDF>
      <cc:Work
         rdf:about="">
        <dc:format>image/svg+xml</dc:format>
        <dc:type
           rdf:resource="http://purl.org/dc/dcmitype/StillImage" />
        <dc:title />
      </cc:Work>
    </rdf:RDF>
  </metadata>
  <g
     inkscape:label="Camada 1"
     inkscape:groupmode="layer"
     id="layer1"
     transform="translate(0,-796.36218)">
    <path
       style="fill:#44444f;fill-opacity:1;stroke:none"
       d="M 129.9375 10.15625 C 88.180473 10.15625 54.5625 43.77422 54.5625 85.53125 L 54.5625 86.15625 L 54.5625 102.8125 L 54.5625 157.28125 L 41.375 157.28125 C 37.990624 157.28125 35.25 159.99062 35.25 163.375 L 35.25 185.21875 C 35.25 188.60313 37.990624 191.34375 41.375 191.34375 L 74.5625 191.34375 L 74.5625 229.46875 L 98.0625 229.46875 L 98.0625 191.34375 L 161.78125 191.34375 L 161.78125 253 L 185.3125 253 L 185.3125 191.34375 L 221.6875 191.34375 C 225.07188 191.34375 227.8125 188.60313 227.8125 185.21875 L 227.8125 163.375 C 227.8125 159.99062 225.07188 157.28125 221.6875 157.28125 L 205.3125 157.28125 L 205.3125 102.8125 L 205.3125 86.15625 L 205.3125 85.53125 C 205.3125 43.77422 171.69452 10.15625 129.9375 10.15625 z M 142.125 25.40625 C 145.99668 25.40625 149.77847 25.72415 153.46875 26.34375 C 121.47088 31.70269 97.21875 59.40258 97.21875 92.96875 L 97.21875 93.53125 L 97.21875 108.4375 L 97.21875 157.28125 L 74.5625 157.28125 L 74.5625 108.4375 L 74.5625 93.53125 L 74.5625 92.96875 C 74.5625 55.54043 104.69668 25.40625 142.125 25.40625 z "
       transform="translate(0,796.36218)"
       id="rect2985" />
  </g>
</svg>
