<?xml version="1.0" encoding="UTF-8" standalone="no"?>
<!-- Created with Inkscape (http://www.inkscape.org/) -->

<svg
   xmlns:dc="http://purl.org/dc/elements/1.1/"
   xmlns:cc="http://creativecommons.org/ns#"
   xmlns:rdf="http://www.w3.org/1999/02/22-rdf-syntax-ns#"
   xmlns:svg="http://www.w3.org/2000/svg"
   xmlns="http://www.w3.org/2000/svg"
   xmlns:sodipodi="http://sodipodi.sourceforge.net/DTD/sodipodi-0.dtd"
   xmlns:inkscape="http://www.inkscape.org/namespaces/inkscape"
   width="256"
   height="256"
   id="svg2"
   version="1.1"
   inkscape:version="0.48.4 r9939"
   sodipodi:docname="photoresistor.svg"
   inkscape:export-filename="/home/atila/NetBeansProjects/wireless-monitor/packages/fidias/photoresitor/src/assets/svg/photoresistor.png"
   inkscape:export-xdpi="5.6199999"
   inkscape:export-ydpi="5.6199999">
  <defs
     id="defs4" />
  <sodipodi:namedview
     id="base"
     pagecolor="#ffffff"
     bordercolor="#666666"
     borderopacity="1.0"
     inkscape:pageopacity="0.0"
     inkscape:pageshadow="2"
     inkscape:zoom="2.9444368"
     inkscape:cx="95.159383"
     inkscape:cy="159.00441"
     inkscape:document-units="px"
     inkscape:current-layer="layer1"
     showgrid="false"
     inkscape:showpageshadow="false"
     inkscape:window-width="1366"
     inkscape:window-height="744"
     inkscape:window-x="0"
     inkscape:window-y="0"
     inkscape:window-maximized="1" />
  <metadata
     id="metadata7">
    <rdf:RDF>
      <cc:Work
         rdf:about="">
        <dc:format>image/svg+xml</dc:format>
        <dc:type
           rdf:resource="http://purl.org/dc/dcmitype/StillImage" />
        <dc:title></dc:title>
      </cc:Work>
    </rdf:RDF>
  </metadata>
  <g
     inkscape:label="Camada 1"
     inkscape:groupmode="layer"
     id="layer1"
     transform="translate(0,-796.36218)">
    <rect
       style="fill:#444444;fill-opacity:1;stroke:none"
       id="rect2987"
       width="184.07594"
       height="112.07576"
       x="36.679344"
       y="824.13519"
       ry="56.03788" />
    <path
       sodipodi:type="arc"
       style="fill:#ffffff;fill-opacity:1;stroke:none"
       id="path3759"
       sodipodi:cx="-157.92494"
       sodipodi:cy="92.641083"
       sodipodi:rx="11.886824"
       sodipodi:ry="11.886824"
       d="m -146.03812,92.641083 a 11.886824,11.886824 0 1 1 -23.77365,0 11.886824,11.886824 0 1 1 23.77365,0 z"
       transform="translate(225.51002,787.53199)" />
    <path
       transform="translate(349.13298,787.53199)"
       d="m -146.03812,92.641083 a 11.886824,11.886824 0 1 1 -23.77365,0 11.886824,11.886824 0 1 1 23.77365,0 z"
       sodipodi:ry="11.886824"
       sodipodi:rx="11.886824"
       sodipodi:cy="92.641083"
       sodipodi:cx="-157.92494"
       id="path3761"
       style="fill:#ffffff;fill-opacity:1;stroke:none"
       sodipodi:type="arc" />
    <rect
       style="fill:#444444;fill-opacity:1;stroke:none"
       id="rect3763"
       width="17.660421"
       height="116.83048"
       x="79.471901"
       y="920.5882"
       ry="0" />
    <rect
       ry="0"
       y="921.26746"
       x="161.6608"
       height="115.47198"
       width="17.660421"
       id="rect3765"
       style="fill:#444444;fill-opacity:1;stroke:none" />
    <rect
       style="fill:#ffffff;fill-opacity:1;stroke:none"
       id="rect3767"
       width="108.00028"
       height="8.1509647"
       x="42.433979"
       y="832.24152" />
    <rect
       y="915.11652"
       x="113.43426"
       height="8.1509647"
       width="108.00028"
       id="rect3769"
       style="fill:#ffffff;fill-opacity:1;stroke:none" />
    <path
       style="fill:#ffffff;fill-opacity:1;stroke:none"
       d="m 105.27801,902.54873 0,20.71875 8.15625,0 0,-20.71875 -8.15625,0 z"
       id="rect3792"
       inkscape:connector-curvature="0" />
    <path
       style="fill:#ffffff;fill-opacity:1;stroke:none"
       d="m 105.27801,894.39248 0,8.15625 37,0 0,-8.15625 -37,0 z"
       id="rect3797"
       inkscape:connector-curvature="0" />
    <path
       inkscape:connector-curvature="0"
       id="path3802"
       d="m 142.27801,881.82998 0,20.71875 8.15625,0 0,-20.71875 -8.15625,0 z"
       style="fill:#ffffff;fill-opacity:1;stroke:none" />
    <path
       inkscape:connector-curvature="0"
       id="path3804"
       d="m 113.43426,873.67373 0,8.15625 37,0 0,-8.15625 -37,0 z"
       style="fill:#ffffff;fill-opacity:1;stroke:none" />
    <path
       style="fill:#ffffff;fill-opacity:1;stroke:none"
       d="m 105.27801,861.11123 0,20.71875 8.15625,0 0,-20.71875 -8.15625,0 z"
       id="path3806"
       inkscape:connector-curvature="0" />
    <path
       style="fill:#ffffff;fill-opacity:1;stroke:none"
       d="m 105.27801,852.95498 0,8.15625 37,0 0,-8.15625 -37,0 z"
       id="path3808"
       inkscape:connector-curvature="0" />
    <path
       inkscape:connector-curvature="0"
       id="path3810"
       d="m 142.27801,840.39248 0,20.71875 8.15625,0 0,-20.71875 -8.15625,0 z"
       style="fill:#ffffff;fill-opacity:1;stroke:none" />
  </g>
</svg>
