<?xml version="1.0" encoding="UTF-8" standalone="no"?>
<!-- Created with Inkscape (http://www.inkscape.org/) -->

<svg
   xmlns:dc="http://purl.org/dc/elements/1.1/"
   xmlns:cc="http://creativecommons.org/ns#"
   xmlns:rdf="http://www.w3.org/1999/02/22-rdf-syntax-ns#"
   xmlns:svg="http://www.w3.org/2000/svg"
   xmlns="http://www.w3.org/2000/svg"
   xmlns:sodipodi="http://sodipodi.sourceforge.net/DTD/sodipodi-0.dtd"
   xmlns:inkscape="http://www.inkscape.org/namespaces/inkscape"
   width="256"
   height="256"
   id="svg2"
   version="1.1"
   inkscape:version="0.48.4 r9939"
   sodipodi:docname="photoresistor.svg"
   inkscape:export-filename="/home/atila/NetBeansProjects/wireless-monitor/packages/fidias/photoresitor/src/assets/svg/photoresistor.png"
   inkscape:export-xdpi="5.6199999"
   inkscape:export-ydpi="5.6199999">
  <defs
     id="defs4" />
  <sodipodi:namedview
     id="base"
     pagecolor="#ffffff"
     bordercolor="#666666"
     borderopacity="1.0"
     inkscape:pageopacity="0.0"
     inkscape:pageshadow="2"
     inkscape:zoom="2.0820312"
     inkscape:cx="128"
     inkscape:cy="128"
     inkscape:document-units="px"
     inkscape:current-layer="layer1"
     showgrid="false"
     inkscape:showpageshadow="false"
     inkscape:window-width="1366"
     inkscape:window-height="744"
     inkscape:window-x="0"
     inkscape:window-y="0"
     inkscape:window-maximized="1" />
  <metadata
     id="metadata7">
    <rdf:RDF>
      <cc:Work
         rdf:about="">
        <dc:format>image/svg+xml</dc:format>
        <dc:type
           rdf:resource="http://purl.org/dc/dcmitype/StillImage" />
        <dc:title />
      </cc:Work>
    </rdf:RDF>
  </metadata>
  <g
     inkscape:label="Camada 1"
     inkscape:groupmode="layer"
     id="layer1"
     transform="translate(0,-796.36218)">
    <path
       style="fill:#44444f;fill-opacity:1;stroke:none"
       mask="none"
       clip-path="none"
       d="M 13.0625 59.21875 C 6.8091873 70.243124 3.1875 82.964304 3.1875 96.59375 C 3.1875 138.53409 36.965911 172.3125 78.90625 172.3125 L 176.1875 172.3125 C 199.59518 172.3125 220.41576 161.77383 234.28125 145.1875 L 106.90625 145.1875 L 91.90625 145.1875 L 91.90625 130.1875 L 91.90625 102.21875 L 91.90625 87.21875 L 145.875 87.21875 L 145.875 74.21875 L 145.875 59.21875 L 13.0625 59.21875 z M 44.96875 80.5625 C 53.837641 80.5625 61 87.724859 61 96.59375 C 61 105.46264 53.837641 112.65625 44.96875 112.65625 C 36.099859 112.65625 28.90625 105.46264 28.90625 96.59375 C 28.90625 87.724859 36.099859 80.5625 44.96875 80.5625 z "
       transform="translate(0,796.36218)"
       id="path3031" />
    <path
       style="fill:#44444f;fill-opacity:1;stroke:none"
       mask="none"
       clip-path="none"
       d="M 78.90625 20.90625 C 57.36049 20.90625 38.011021 29.866339 24.25 44.21875 L 160.875 44.21875 L 160.875 59.21875 L 160.875 74.21875 L 160.875 102.21875 L 146.1875 102.21875 L 106.90625 102.21875 L 106.90625 130.1875 L 244 130.1875 C 249.00068 120.06754 251.875 108.68654 251.875 96.59375 C 251.875 54.65342 218.12784 20.90625 176.1875 20.90625 L 78.90625 20.90625 z M 211.96875 80.5625 C 220.83764 80.5625 228.03125 87.724859 228.03125 96.59375 C 228.03125 105.46264 220.83764 112.65625 211.96875 112.65625 C 203.09986 112.65625 195.90625 105.46264 195.90625 96.59375 C 195.90625 87.724859 203.09986 80.5625 211.96875 80.5625 z "
       transform="translate(0,796.36218)"
       id="rect2987" />
    <rect
       ry="0"
       y="958.04218"
       x="172.38171"
       height="73.418533"
       width="23.523001"
       id="rect3003"
       style="fill:#44444f;fill-opacity:1;stroke:none" />
    <rect
       style="fill:#44444f;fill-opacity:1;stroke:none"
       id="rect3004"
       width="23.523001"
       height="73.418533"
       x="61.012913"
       y="958.04218"
       ry="0" />
  </g>
</svg>
