<?xml version="1.0" encoding="UTF-8" standalone="no"?>
<!-- Generator: Adobe Illustrator 19.0.0, SVG Export Plug-In . SVG Version: 6.00 Build 0)  -->

<svg
   xmlns:dc="http://purl.org/dc/elements/1.1/"
   xmlns:cc="http://creativecommons.org/ns#"
   xmlns:rdf="http://www.w3.org/1999/02/22-rdf-syntax-ns#"
   xmlns:svg="http://www.w3.org/2000/svg"
   xmlns="http://www.w3.org/2000/svg"
   xmlns:sodipodi="http://sodipodi.sourceforge.net/DTD/sodipodi-0.dtd"
   xmlns:inkscape="http://www.inkscape.org/namespaces/inkscape"
   version="1.1"
   id="Capa_1"
   x="0px"
   y="0px"
   viewBox="0 0 60 60"
   style="enable-background:new 0 0 60 60;"
   xml:space="preserve"
   inkscape:version="0.48.4 r9939"
   width="100%"
   height="100%"
   sodipodi:docname="cloud.svg"
   inkscape:export-filename="/home/atila/NetBeansProjects/wireless-monitor/resources/assets/img-src/cloud.png"
   inkscape:export-xdpi="225"
   inkscape:export-ydpi="225"><metadata
     id="metadata49"><rdf:RDF><cc:Work
         rdf:about=""><dc:format>image/svg+xml</dc:format><dc:type
           rdf:resource="http://purl.org/dc/dcmitype/StillImage" /><dc:title></dc:title></cc:Work></rdf:RDF></metadata><defs
     id="defs47" /><sodipodi:namedview
     pagecolor="#ffffff"
     bordercolor="#666666"
     borderopacity="1"
     objecttolerance="10"
     gridtolerance="10"
     guidetolerance="10"
     inkscape:pageopacity="0"
     inkscape:pageshadow="2"
     inkscape:window-width="1366"
     inkscape:window-height="744"
     id="namedview45"
     showgrid="false"
     inkscape:zoom="3.9333333"
     inkscape:cx="59.247219"
     inkscape:cy="30.484518"
     inkscape:window-x="0"
     inkscape:window-y="0"
     inkscape:window-maximized="1"
     inkscape:current-layer="Capa_1" /><path
     style="fill:#7fabda;stroke:#7383bf;stroke-width:2;stroke-linecap:round;stroke-miterlimit:10"
     d="M 50.003,17 C 49.888,8.301 42.81,1 34.084,1 28.525,1 23.305,4.005 20.423,8.336 19.157,7.493 17.636,7 16,7 11.582,7 8,10.582 8,15 8,15.153 8.014,15.302 8.023,15.454 8.013,15.636 8,15.82 8,16 4.012,17.912 1,22.457 1,27.155 1,33.67 6.33,39 12.845,39 h 24.507 c 0.138,0 0.272,-0.016 0.408,-0.021 0.137,0.005 0.271,0.021 0.408,0.021 h 9.803 C 54.037,39 59,34.037 59,27.972 59,22.601 55.106,17.961 50.003,17 z"
     id="path3"
     inkscape:connector-curvature="0" /><path
     style="fill:#7fabda;stroke:#7383bf;stroke-width:2;stroke-linecap:round;stroke-miterlimit:10"
     d="m 50.003,17 c 0,0 -2.535,-0.375 -5.003,0"
     id="path5"
     inkscape:connector-curvature="0" /><path
     style="fill:#7fabda;stroke:#7383bf;stroke-width:2;stroke-linecap:round;stroke-miterlimit:10"
     d="m 8,15 c 0,-4.418 3.582,-8 8,-8 4.418,0 8,3.582 8,8"
     id="path7"
     inkscape:connector-curvature="0" /><line
     style="fill:none;stroke:#424a60;stroke-width:1.78506041;stroke-linecap:round;stroke-miterlimit:10"
     x1="31.028"
     y1="45.118645"
     x2="31.028"
     y2="26.79661"
     id="line9" /><line
     style="fill:none;stroke:#424a60;stroke-width:2;stroke-linecap:round;stroke-miterlimit:10"
     x1="31.028"
     y1="27"
     x2="39.028"
     y2="35"
     id="line11" /><line
     style="fill:none;stroke:#424a60;stroke-width:2;stroke-linecap:round;stroke-miterlimit:10"
     x1="23.028"
     y1="35"
     x2="31.028"
     y2="27"
     id="line13" /><g
     id="g15" /><g
     id="g17" /><g
     id="g19" /><g
     id="g21" /><g
     id="g23" /><g
     id="g25" /><g
     id="g27" /><g
     id="g29" /><g
     id="g31" /><g
     id="g33" /><g
     id="g35" /><g
     id="g37" /><g
     id="g39" /><g
     id="g41" /><g
     id="g43" /><text
     xml:space="preserve"
     style="font-size:14.81255817px;font-style:normal;font-variant:normal;font-weight:900;font-stretch:normal;text-align:start;line-height:125%;letter-spacing:0px;word-spacing:0px;writing-mode:lr-tb;text-anchor:start;fill:#424a60;fill-opacity:1;stroke:none;font-family:Roboto;-inkscape-font-specification:Roboto Heavy"
     x="10.959931"
     y="57.848114"
     id="text3026"
     sodipodi:linespacing="125%"><tspan
       sodipodi:role="line"
       id="tspan3028"
       x="10.959931"
       y="57.848114">JSON</tspan></text>
</svg>