<?xml version="1.0" encoding="UTF-8" standalone="no"?>
<!-- Generator: Adobe Illustrator 19.0.0, SVG Export Plug-In . SVG Version: 6.00 Build 0)  -->

<svg
   xmlns:dc="http://purl.org/dc/elements/1.1/"
   xmlns:cc="http://creativecommons.org/ns#"
   xmlns:rdf="http://www.w3.org/1999/02/22-rdf-syntax-ns#"
   xmlns:svg="http://www.w3.org/2000/svg"
   xmlns="http://www.w3.org/2000/svg"
   xmlns:sodipodi="http://sodipodi.sourceforge.net/DTD/sodipodi-0.dtd"
   xmlns:inkscape="http://www.inkscape.org/namespaces/inkscape"
   version="1.1"
   id="Capa_1"
   x="0px"
   y="0px"
   viewBox="0 0 58 58"
   style="enable-background:new 0 0 58 58;"
   xml:space="preserve"
   inkscape:version="0.48.4 r9939"
   width="100%"
   height="100%"
   sodipodi:docname="computer.svg"
   inkscape:export-filename="/home/atila/NetBeansProjects/wireless-monitor/resources/assets/img-src/computer.png"
   inkscape:export-xdpi="232.75999"
   inkscape:export-ydpi="232.75999"><metadata
     id="metadata59"><rdf:RDF><cc:Work
         rdf:about=""><dc:format>image/svg+xml</dc:format><dc:type
           rdf:resource="http://purl.org/dc/dcmitype/StillImage" /><dc:title></dc:title></cc:Work></rdf:RDF></metadata><defs
     id="defs57" /><sodipodi:namedview
     pagecolor="#ffffff"
     bordercolor="#666666"
     borderopacity="1"
     objecttolerance="10"
     gridtolerance="10"
     guidetolerance="10"
     inkscape:pageopacity="0"
     inkscape:pageshadow="2"
     inkscape:window-width="1366"
     inkscape:window-height="744"
     id="namedview55"
     showgrid="false"
     inkscape:zoom="5.1551724"
     inkscape:cx="-0.48494983"
     inkscape:cy="29"
     inkscape:window-x="0"
     inkscape:window-y="0"
     inkscape:window-maximized="1"
     inkscape:current-layer="Capa_1" /><g
     id="g3069"
     transform="matrix(0.94585766,0,0,0.94585766,2,-6.5127189)"><path
       id="path3"
       d="m 24.093,45 c 0.208,0.58 0.758,1 1.407,1 h 8 c 0.649,0 1.2,-0.42 1.407,-1 H 55 V 12.067 C 55,10.373 53.627,9 51.933,9 H 6.067 C 4.373,9 3,10.373 3,12.067 V 45 h 21.093 z"
       style="fill:#38454f"
       inkscape:connector-curvature="0" /><rect
       id="rect5"
       height="30"
       width="46"
       style="fill:#546a79"
       y="12"
       x="6" /><g
       id="g7"><path
         id="path9"
         d="m 11,22 c 0.256,0 0.512,-0.098 0.707,-0.293 l 4,-4 c 0.391,-0.391 0.391,-1.023 0,-1.414 -0.391,-0.391 -1.023,-0.391 -1.414,0 l -4,4 c -0.391,0.391 -0.391,1.023 0,1.414 C 10.488,21.902 10.744,22 11,22 z"
         style="fill:#839caa"
         inkscape:connector-curvature="0" /><path
         id="path11"
         d="m 11,27 c 0.256,0 0.512,-0.098 0.707,-0.293 l 2,-2 c 0.391,-0.391 0.391,-1.023 0,-1.414 -0.391,-0.391 -1.023,-0.391 -1.414,0 l -2,2 c -0.391,0.391 -0.391,1.023 0,1.414 C 10.488,26.902 10.744,27 11,27 z"
         style="fill:#839caa"
         inkscape:connector-curvature="0" /><path
         id="path13"
         d="M 14.29,21.29 C 14.109,21.48 14,21.74 14,22 c 0,0.26 0.109,0.52 0.29,0.71 0.189,0.18 0.45,0.29 0.71,0.29 0.26,0 0.52,-0.11 0.71,-0.29 C 15.89,22.52 16,22.26 16,22 c 0,-0.26 -0.11,-0.52 -0.29,-0.71 -0.37,-0.37 -1.061,-0.36 -1.42,0 z"
         style="fill:#839caa"
         inkscape:connector-curvature="0" /><path
         id="path15"
         d="M 16.293,20.707 C 16.488,20.902 16.744,21 17,21 c 0.256,0 0.512,-0.098 0.707,-0.293 l 3,-3 c 0.391,-0.391 0.391,-1.023 0,-1.414 -0.391,-0.391 -1.023,-0.391 -1.414,0 l -3,3 c -0.391,0.391 -0.391,1.023 0,1.414 z"
         style="fill:#839caa"
         inkscape:connector-curvature="0" /><path
         id="path17"
         d="m 19.293,21.293 -9,9 c -0.391,0.391 -0.391,1.023 0,1.414 C 10.488,31.902 10.744,32 11,32 c 0.256,0 0.512,-0.098 0.707,-0.293 l 9,-9 c 0.391,-0.391 0.391,-1.023 0,-1.414 -0.391,-0.391 -1.023,-0.391 -1.414,0 z"
         style="fill:#839caa"
         inkscape:connector-curvature="0" /><path
         id="path19"
         d="M 21.29,19.29 C 21.109,19.48 21,19.74 21,20 c 0,0.26 0.109,0.52 0.29,0.71 0.189,0.18 0.45,0.29 0.71,0.29 0.26,0 0.52,-0.11 0.71,-0.29 C 22.89,20.52 23,20.26 23,20 c 0,-0.27 -0.11,-0.52 -0.29,-0.71 -0.37,-0.37 -1.04,-0.37 -1.42,0 z"
         style="fill:#839caa"
         inkscape:connector-curvature="0" /><path
         id="path21"
         d="m 25.707,16.293 c -0.391,-0.391 -1.023,-0.391 -1.414,0 l -1,1 c -0.391,0.391 -0.391,1.023 0,1.414 C 23.488,18.902 23.744,19 24,19 c 0.256,0 0.512,-0.098 0.707,-0.293 l 1,-1 c 0.391,-0.391 0.391,-1.023 0,-1.414 z"
         style="fill:#839caa"
         inkscape:connector-curvature="0" /></g><path
       id="path23"
       d="m 34.907,45 c -0.208,0.58 -0.758,1 -1.407,1 h -8 c -0.649,0 -1.2,-0.42 -1.407,-1 H 0.578 C 0.259,45 0,45.259 0,45.578 v 2.844 C 0,48.741 0.259,49 0.578,49 H 57.422 C 57.741,49 58,48.741 58,48.422 V 45.578 C 58,45.259 57.741,45 57.422,45 H 34.907 z"
       style="fill:#afb6bb"
       inkscape:connector-curvature="0" /></g><g
     id="g25" /><g
     id="g27" /><g
     id="g29" /><g
     id="g31" /><g
     id="g33" /><g
     id="g35" /><g
     id="g37" /><g
     id="g39" /><g
     id="g41" /><g
     id="g43" /><g
     id="g45" /><g
     id="g47" /><g
     id="g49" /><g
     id="g51" /><g
     id="g53" /><g
     transform="matrix(0.44915254,0,0,0.44915254,35.338983,29.949153)"
     id="g3040"><path
       inkscape:connector-curvature="0"
       id="path3-3"
       d="M 43.912,58 H 14.088 C 12.935,58 12,57.065 12,55.912 V 2.088 C 12,0.935 12.935,0 14.088,0 H 43.911 C 45.065,0 46,0.935 46,2.088 V 55.911 C 46,57.065 45.065,58 43.912,58 z"
       style="fill:#cbd4d8" /><rect
       id="rect5-6"
       height="46"
       width="34"
       style="fill:#57abc1"
       y="6"
       x="12" /><path
       inkscape:connector-curvature="0"
       id="path7"
       d="m 32,56 h -6 c -0.553,0 -1,-0.447 -1,-1 0,-0.553 0.447,-1 1,-1 h 6 c 0.553,0 1,0.447 1,1 0,0.553 -0.447,1 -1,1 z"
       style="fill:#afb6bb" /><g
       id="g9"><path
         inkscape:connector-curvature="0"
         id="path11-7"
         d="m 15,14 c 0.256,0 0.512,-0.098 0.707,-0.293 l 4,-4 c 0.391,-0.391 0.391,-1.023 0,-1.414 -0.391,-0.391 -1.023,-0.391 -1.414,0 l -4,4 c -0.391,0.391 -0.391,1.023 0,1.414 C 14.488,13.902 14.744,14 15,14 z"
         style="fill:#14d4f4" /><path
         inkscape:connector-curvature="0"
         id="path13-5"
         d="m 15,19 c 0.256,0 0.512,-0.098 0.707,-0.293 l 2,-2 c 0.391,-0.391 0.391,-1.023 0,-1.414 -0.391,-0.391 -1.023,-0.391 -1.414,0 l -2,2 c -0.391,0.391 -0.391,1.023 0,1.414 C 14.488,18.902 14.744,19 15,19 z"
         style="fill:#14d4f4" /><path
         inkscape:connector-curvature="0"
         id="path15-3"
         d="M 18.29,13.29 C 18.109,13.479 18,13.74 18,14 c 0,0.26 0.109,0.52 0.29,0.71 0.189,0.18 0.45,0.29 0.71,0.29 0.26,0 0.52,-0.11 0.71,-0.29 C 19.89,14.52 20,14.26 20,14 c 0,-0.271 -0.11,-0.521 -0.29,-0.71 -0.37,-0.37 -1.04,-0.37 -1.42,0 z"
         style="fill:#14d4f4" /><path
         inkscape:connector-curvature="0"
         id="path17-5"
         d="M 20.293,12.707 C 20.488,12.902 20.744,13 21,13 c 0.256,0 0.512,-0.098 0.707,-0.293 l 3,-3 c 0.391,-0.391 0.391,-1.023 0,-1.414 -0.391,-0.391 -1.023,-0.391 -1.414,0 l -3,3 c -0.391,0.391 -0.391,1.023 0,1.414 z"
         style="fill:#14d4f4" /><path
         inkscape:connector-curvature="0"
         id="path19-6"
         d="m 23.293,13.293 -9,9 c -0.391,0.391 -0.391,1.023 0,1.414 C 14.488,23.902 14.744,24 15,24 c 0.256,0 0.512,-0.098 0.707,-0.293 l 9,-9 c 0.391,-0.391 0.391,-1.023 0,-1.414 -0.391,-0.391 -1.023,-0.391 -1.414,0 z"
         style="fill:#14d4f4" /><path
         inkscape:connector-curvature="0"
         id="path21-2"
         d="M 25.29,11.29 C 25.109,11.479 25,11.74 25,12 c 0,0.26 0.109,0.52 0.29,0.71 0.189,0.18 0.45,0.29 0.71,0.29 0.26,0 0.52,-0.11 0.71,-0.29 C 26.89,12.52 27,12.26 27,12 c 0,-0.26 -0.101,-0.521 -0.29,-0.71 -0.38,-0.37 -1.05,-0.37 -1.42,0 z"
         style="fill:#14d4f4" /><path
         inkscape:connector-curvature="0"
         id="path23-9"
         d="m 29.707,8.293 c -0.391,-0.391 -1.023,-0.391 -1.414,0 l -1,1 c -0.391,0.391 -0.391,1.023 0,1.414 C 27.488,10.902 27.744,11 28,11 c 0.256,0 0.512,-0.098 0.707,-0.293 l 1,-1 c 0.391,-0.391 0.391,-1.023 0,-1.414 z"
         style="fill:#14d4f4" /></g><path
       inkscape:connector-curvature="0"
       id="path25"
       d="M 41,4 C 40.729,4 40.479,3.89 40.29,3.71 40.109,3.52 40,3.26 40,3 40,2.74 40.109,2.479 40.29,2.29 40.67,1.92 41.33,1.92 41.71,2.29 41.89,2.479 42,2.74 42,3 42,3.26 41.89,3.52 41.71,3.71 41.52,3.89 41.26,4 41,4 z"
       style="fill:#afb6bb" /><path
       inkscape:connector-curvature="0"
       id="path27"
       d="M 32,4 H 26 C 25.447,4 25,3.553 25,3 25,2.447 25.447,2 26,2 h 6 c 0.553,0 1,0.447 1,1 0,0.553 -0.447,1 -1,1 z"
       style="fill:#afb6bb" /></g></svg>