<?xml version="1.0" encoding="UTF-8" standalone="no"?>
<!-- Generator: Adobe Illustrator 14.0.0, SVG Export Plug-In . SVG Version: 6.00 Build 43363)  -->

<svg
   xmlns:dc="http://purl.org/dc/elements/1.1/"
   xmlns:cc="http://creativecommons.org/ns#"
   xmlns:rdf="http://www.w3.org/1999/02/22-rdf-syntax-ns#"
   xmlns:svg="http://www.w3.org/2000/svg"
   xmlns="http://www.w3.org/2000/svg"
   xmlns:sodipodi="http://sodipodi.sourceforge.net/DTD/sodipodi-0.dtd"
   xmlns:inkscape="http://www.inkscape.org/namespaces/inkscape"
   version="1.1"
   id="Layer_1"
   x="0px"
   y="0px"
   width="32px"
   height="32px"
   viewBox="0 0 32 32"
   enable-background="new 0 0 32 32"
   xml:space="preserve"
   inkscape:version="0.48.4 r9939"
   sodipodi:docname="led.svg"><metadata
     id="metadata26"><rdf:RDF><cc:Work
         rdf:about=""><dc:format>image/svg+xml</dc:format><dc:type
           rdf:resource="http://purl.org/dc/dcmitype/StillImage" /></cc:Work></rdf:RDF></metadata><defs
     id="defs24" /><sodipodi:namedview
     pagecolor="#ffffff"
     bordercolor="#666666"
     borderopacity="1"
     objecttolerance="10"
     gridtolerance="10"
     guidetolerance="10"
     inkscape:pageopacity="0"
     inkscape:pageshadow="2"
     inkscape:window-width="1366"
     inkscape:window-height="744"
     id="namedview22"
     showgrid="false"
     inkscape:zoom="7.375"
     inkscape:cx="-1.0997432"
     inkscape:cy="5.1701961"
     inkscape:window-x="0"
     inkscape:window-y="0"
     inkscape:window-maximized="1"
     inkscape:current-layer="Layer_1" /><g
     id="g3859"
     transform="translate(3.3972077,0.14135786)"><rect
       x="9.5426435"
       y="14.605558"
       width="1.5393767"
       height="16.373726"
       id="rect4"
       style="fill:#8c8c8c" /><path
       id="path6"
       d="m 12.34375,14.5625 0,4.125 c 0,0.757953 0.660555,1.347046 1.375,1.96875 0.317722,0.270207 0.96875,0.909143 0.96875,1.28125 l 0,9.03125 1.5625,0 0,-9.34375 c 0,-0.839817 -0.767808,-1.488984 -1.5,-2.125 -0.297685,-0.262192 -0.875,-0.728984 -0.875,-1.03125 l 0,-3.90625 -1.53125,0 z"
       style="fill:#8c8c8c"
       inkscape:connector-curvature="0" /><g
       transform="matrix(0.57247186,0,0,0.57247186,3.0239065,0.31551577)"
       id="g12"><path
         id="color_path14"
         enable-background="new    "
         d="m 24.791,16.988 v -7.39 c 0,-4.891 -3.96,-8.86 -8.857,-8.86 -4.892,0 -8.861,3.962 -8.861,8.86 V 26.66 c 1.842,2.062 5.121,3.439 8.86,3.439 5.774,0 10.459,-3.271 10.459,-7.324 v -1.903 c 0.001,-1.429 -0.591,-2.755 -1.601,-3.884 z"
         inkscape:connector-curvature="0"
         style="opacity:0.3;fill:#e60000" /><path
         id="path16"
         enable-background="new    "
         d="m 24.791,16.988 v -7.39 c 0,-4.891 -3.96,-8.86 -8.857,-8.86 -4.892,0 -8.861,3.962 -8.861,8.86 V 26.66 c 1.842,2.062 5.121,3.439 8.86,3.439 5.774,0 10.459,-3.271 10.459,-7.324 v -1.903 c 0.001,-1.429 -0.591,-2.755 -1.601,-3.884 z"
         inkscape:connector-curvature="0"
         style="opacity:0.5;fill:#e6e6e6" /><path
         id="path18"
         enable-background="new    "
         d="m 24.791,16.988 v 3.883 c 0,3.423 -3.957,6.205 -8.857,6.205 -4.892,0 -8.861,-2.773 -8.861,-6.205 v 3.881 1.905 c 1.842,2.063 5.121,3.44 8.86,3.44 5.774,0 10.459,-3.272 10.459,-7.322 v -1.904 c 0.001,-1.428 -0.591,-2.754 -1.601,-3.883 z"
         inkscape:connector-curvature="0"
         style="opacity:0.9;fill:#d1d1d1" /><path
         id="color_path20"
         enable-background="new    "
         d="m 24.791,16.988 v 3.883 c 0,3.423 -3.957,6.205 -8.857,6.205 -4.892,0 -8.861,-2.773 -8.861,-6.205 v 3.881 1.905 c 1.842,2.063 5.121,3.44 8.86,3.44 5.774,0 10.459,-3.272 10.459,-7.322 v -1.904 c 0.001,-1.428 -0.591,-2.754 -1.601,-3.883 z"
         inkscape:connector-curvature="0"
         style="opacity:0.7;fill:#e60000" /><path
         id="path22"
         enable-background="new    "
         d="m 24.791,16.988 v 3.883 c 0,3.423 -3.957,6.205 -8.857,6.205 -4.892,0 -8.861,-2.773 -8.861,-6.205 v 3.881 c 1.842,2.062 5.121,3.439 8.86,3.439 5.774,0 10.459,-3.271 10.459,-7.322 0.001,-1.426 -0.591,-2.752 -1.601,-3.881 z"
         inkscape:connector-curvature="0"
         style="opacity:0.25" /><ellipse
         id="ellipse24"
         enable-background="new    "
         cx="15.933"
         cy="20.871"
         rx="8.8590002"
         ry="6.2010002"
         d="m 24.792,20.871 c 0,3.424718 -3.96631,6.201001 -8.859,6.201001 -4.892691,0 -8.8590006,-2.776283 -8.8590006,-6.201001 0,-3.424718 3.9663096,-6.201 8.8590006,-6.201 4.89269,0 8.859,2.776282 8.859,6.201 z"
         sodipodi:cx="15.933"
         sodipodi:cy="20.871"
         sodipodi:rx="8.8590002"
         sodipodi:ry="6.2010002"
         style="opacity:0.25;fill:#e6e6e6" /><ellipse
         id="color_ellipse26"
         enable-background="new    "
         cx="15.933"
         cy="20.871"
         rx="8.8590002"
         ry="6.2010002"
         d="m 24.792,20.871 c 0,3.424718 -3.96631,6.201001 -8.859,6.201001 -4.892691,0 -8.8590006,-2.776283 -8.8590006,-6.201001 0,-3.424718 3.9663096,-6.201 8.8590006,-6.201 4.89269,0 8.859,2.776282 8.859,6.201 z"
         sodipodi:cx="15.933"
         sodipodi:cy="20.871"
         sodipodi:rx="8.8590002"
         sodipodi:ry="6.2010002"
         style="opacity:0.25;fill:#e60000" /><polygon
         id="polygon28"
         points="19.589,11.744 11.332,11.744 9.828,12.797 9.828,20.871 11.068,20.871 11.068,17.105 14.593,17.105 "
         style="fill:#666666" /><polygon
         id="polygon30"
         points="22.041,20.871 22.041,11.393 20.547,11.393 21.092,12.03 16.338,17.105 20.898,17.105 20.898,20.871 "
         style="fill:#666666" /><path
         id="color_path32"
         enable-background="new    "
         d="m 24.791,16.988 v -7.39 c 0,-4.891 -3.96,-8.86 -8.857,-8.86 -4.892,0 -8.861,3.962 -8.861,8.86 V 26.66 c 1.842,2.062 5.121,3.439 8.86,3.439 5.774,0 10.459,-3.271 10.459,-7.324 v -1.903 c 0.001,-1.429 -0.591,-2.755 -1.601,-3.884 z"
         inkscape:connector-curvature="0"
         style="opacity:0.65;fill:#e60000" /><path
         id="path34"
         enable-background="new    "
         d="M 20.059,5.43 21.854,5.088 C 20.802,3.673 19.252,2.641 17.427,2.29 l 0.318,1.351 c 0.954,0.338 1.758,0.976 2.314,1.789 z"
         inkscape:connector-curvature="0"
         style="opacity:0.5;fill:#ffffff" /><path
         id="path36"
         enable-background="new    "
         d="m 8.034,25.645 v 1.9 c 0.811,0.662 1.792,1.221 2.885,1.646 V 27.285 C 9.82,26.865 8.848,26.309 8.034,25.645 z"
         inkscape:connector-curvature="0"
         style="opacity:0.5;fill:#ffffff" /><path
         id="path38"
         enable-background="new    "
         d="m 20.914,25.999 c -0.318,0.153 -0.662,0.288 -1.007,0.413 -0.072,0.023 -0.146,0.05 -0.222,0.072 -0.705,0.225 -1.451,0.397 -2.244,0.494 -0.094,0.011 -0.188,0.021 -0.281,0.022 -0.399,0.037 -0.804,0.072 -1.213,0.072 -0.186,0 -0.384,-0.021 -0.589,-0.029 -1.5,-0.069 -2.914,-0.396 -4.122,-0.924 V 15.634 9.603 c 0,-1.839 1.061,-3.412 2.592,-4.187 L 13.8,5.349 12.24,3.459 C 10.153,4.713 8.752,6.987 8.752,9.599 V 24.48 C 8.69,24.418 8.367,24.092 8.152,23.816 l -0.385,0.86 c 1.751,1.854 4.761,3.077 8.178,3.077 2.1,0 4.047,-0.468 5.64,-1.253 l -0.659,-0.512 c -0.012,0.011 -0.012,0.011 -0.012,0.011 z"
         inkscape:connector-curvature="0"
         style="opacity:0.5;fill:#ffffff" /></g></g></svg>