<?xml version="1.0" encoding="UTF-8" standalone="no"?>
<!-- Generator: Adobe Illustrator 19.0.0, SVG Export Plug-In . SVG Version: 6.00 Build 0)  -->

<svg
   xmlns:dc="http://purl.org/dc/elements/1.1/"
   xmlns:cc="http://creativecommons.org/ns#"
   xmlns:rdf="http://www.w3.org/1999/02/22-rdf-syntax-ns#"
   xmlns:svg="http://www.w3.org/2000/svg"
   xmlns="http://www.w3.org/2000/svg"
   xmlns:sodipodi="http://sodipodi.sourceforge.net/DTD/sodipodi-0.dtd"
   xmlns:inkscape="http://www.inkscape.org/namespaces/inkscape"
   version="1.1"
   id="Capa_1"
   x="0px"
   y="0px"
   viewBox="0 0 58 58"
   style="enable-background:new 0 0 58 58;"
   xml:space="preserve"
   inkscape:version="0.48.4 r9939"
   width="100%"
   height="100%"
   sodipodi:docname="smartphone-3.svg"><metadata
     id="metadata63"><rdf:RDF><cc:Work
         rdf:about=""><dc:format>image/svg+xml</dc:format><dc:type
           rdf:resource="http://purl.org/dc/dcmitype/StillImage" /></cc:Work></rdf:RDF></metadata><defs
     id="defs61" /><sodipodi:namedview
     pagecolor="#ffffff"
     bordercolor="#666666"
     borderopacity="1"
     objecttolerance="10"
     gridtolerance="10"
     guidetolerance="10"
     inkscape:pageopacity="0"
     inkscape:pageshadow="2"
     inkscape:window-width="640"
     inkscape:window-height="480"
     id="namedview59"
     showgrid="false"
     inkscape:zoom="4.0689655"
     inkscape:cx="29"
     inkscape:cy="29"
     inkscape:window-x="0"
     inkscape:window-y="0"
     inkscape:window-maximized="0"
     inkscape:current-layer="Capa_1" /><g
     id="g3040"><path
       id="path3"
       d="M43.912,58H14.088C12.935,58,12,57.065,12,55.912V2.088C12,0.935,12.935,0,14.088,0h29.823  C45.065,0,46,0.935,46,2.088v53.823C46,57.065,45.065,58,43.912,58z"
       style="fill:#CBD4D8;" /><rect
       id="rect5"
       height="46"
       width="34"
       style="fill:#57ABC1;"
       y="6"
       x="12" /><path
       id="path7"
       d="M32,56h-6c-0.553,0-1-0.447-1-1s0.447-1,1-1h6c0.553,0,1,0.447,1,1S32.553,56,32,56z"
       style="fill:#AFB6BB;" /><g
       id="g9"><path
         id="path11"
         d="M15,14c0.256,0,0.512-0.098,0.707-0.293l4-4c0.391-0.391,0.391-1.023,0-1.414s-1.023-0.391-1.414,0   l-4,4c-0.391,0.391-0.391,1.023,0,1.414C14.488,13.902,14.744,14,15,14z"
         style="fill:#14D4F4;" /><path
         id="path13"
         d="M15,19c0.256,0,0.512-0.098,0.707-0.293l2-2c0.391-0.391,0.391-1.023,0-1.414s-1.023-0.391-1.414,0   l-2,2c-0.391,0.391-0.391,1.023,0,1.414C14.488,18.902,14.744,19,15,19z"
         style="fill:#14D4F4;" /><path
         id="path15"
         d="M18.29,13.29C18.109,13.479,18,13.74,18,14s0.109,0.52,0.29,0.71C18.479,14.89,18.74,15,19,15   s0.52-0.11,0.71-0.29C19.89,14.52,20,14.26,20,14c0-0.271-0.11-0.521-0.29-0.71C19.34,12.92,18.67,12.92,18.29,13.29z"
         style="fill:#14D4F4;" /><path
         id="path17"
         d="M20.293,12.707C20.488,12.902,20.744,13,21,13s0.512-0.098,0.707-0.293l3-3   c0.391-0.391,0.391-1.023,0-1.414s-1.023-0.391-1.414,0l-3,3C19.902,11.684,19.902,12.316,20.293,12.707z"
         style="fill:#14D4F4;" /><path
         id="path19"
         d="M23.293,13.293l-9,9c-0.391,0.391-0.391,1.023,0,1.414C14.488,23.902,14.744,24,15,24   s0.512-0.098,0.707-0.293l9-9c0.391-0.391,0.391-1.023,0-1.414S23.684,12.902,23.293,13.293z"
         style="fill:#14D4F4;" /><path
         id="path21"
         d="M25.29,11.29C25.109,11.479,25,11.74,25,12s0.109,0.52,0.29,0.71C25.479,12.89,25.74,13,26,13   s0.52-0.11,0.71-0.29C26.89,12.52,27,12.26,27,12s-0.101-0.521-0.29-0.71C26.33,10.92,25.66,10.92,25.29,11.29z"
         style="fill:#14D4F4;" /><path
         id="path23"
         d="M29.707,8.293c-0.391-0.391-1.023-0.391-1.414,0l-1,1c-0.391,0.391-0.391,1.023,0,1.414   C27.488,10.902,27.744,11,28,11s0.512-0.098,0.707-0.293l1-1C30.098,9.316,30.098,8.684,29.707,8.293z"
         style="fill:#14D4F4;" /></g><path
       id="path25"
       d="M41,4c-0.271,0-0.521-0.11-0.71-0.29C40.109,3.52,40,3.26,40,3s0.109-0.521,0.29-0.71  c0.38-0.37,1.04-0.37,1.42,0C41.89,2.479,42,2.74,42,3s-0.11,0.52-0.29,0.71C41.52,3.89,41.26,4,41,4z"
       style="fill:#AFB6BB;" /><path
       id="path27"
       d="M32,4h-6c-0.553,0-1-0.447-1-1s0.447-1,1-1h6c0.553,0,1,0.447,1,1S32.553,4,32,4z"
       style="fill:#AFB6BB;" /></g><g
     id="g29" /><g
     id="g31" /><g
     id="g33" /><g
     id="g35" /><g
     id="g37" /><g
     id="g39" /><g
     id="g41" /><g
     id="g43" /><g
     id="g45" /><g
     id="g47" /><g
     id="g49" /><g
     id="g51" /><g
     id="g53" /><g
     id="g55" /><g
     id="g57" /></svg>